<?xml version="1.0" encoding="utf-8"?>
<!-- Generator: Adobe Illustrator 25.0.1, SVG Export Plug-In . SVG Version: 6.00 Build 0)  -->
<svg version="1.1" id="Layer_1" xmlns="http://www.w3.org/2000/svg" xmlns:xlink="http://www.w3.org/1999/xlink" x="0px" y="0px"
	 viewBox="0 0 512 512" style="enable-background:new 0 0 512 512;" xml:space="preserve">
<style type="text/css">
	.st0{fill:#0773BB;}
</style>
<path class="st0" d="M216.4,223.9v8c0,4.1,3.4,7.5,7.5,7.5s7.5-3.4,7.5-7.5v-8c0-4.1-3.4-7.5-7.5-7.5
	C219.8,216.4,216.4,219.8,216.4,223.9z"/>
<path class="st0" d="M288.1,239.5c4.1,0,7.5-3.4,7.5-7.5v-8c0-4.1-3.4-7.5-7.5-7.5s-7.5,3.4-7.5,7.5v8
	C280.6,236.1,283.9,239.5,288.1,239.5z"/>
<path class="st0" d="M235.8,270.3c6,3.9,12.9,6,20.2,6c7.3,0,14.2-2.1,20.2-6c3.5-2.3,4.4-6.9,2.1-10.4s-6.9-4.4-10.4-2.1
	s-7.6,3.5-11.9,3.5s-8.4-1.2-11.9-3.5c-3.5-2.3-8.1-1.3-10.4,2.1C231.4,263.4,232.4,268,235.8,270.3z"/>
<path class="st0" d="M168.3,207.9c0,20.4,7.1,40.2,20.1,55.8c5.2,14.8,15.1,27.4,28,35.9v17c0,3.3-1.9,6.4-5,7.7l-48.9,22.6
	c-11.1,5.1-18.3,16.4-18.3,28.6v8.7c0,4.1,3.4,7.5,7.5,7.5s7.5-3.4,7.5-7.5v-8.7c0-6.4,3.8-12.3,9.6-15l24.2-11.2
	c18.1,17,40.3,26.3,62.9,26.3h0.3c22.5-0.1,44.6-9.4,62.6-26.3l24.2,11.2c5.8,2.7,9.6,8.6,9.6,15v8.7c0,4.1,3.4,7.5,7.5,7.5
	s7.5-3.4,7.5-7.5v-8.7c0-12.3-7.2-23.5-18.3-28.6l-48.9-22.6c-3-1.4-5-4.4-5-7.8v-17c12.8-8.5,22.8-21.1,28-35.9l0.1-0.1
	c12.9-15.6,20-35.4,20-55.8c0-30.8-16-58-40.1-73.6c-0.8-25.6-21.8-46.1-47.5-46.1s-46.8,20.6-47.5,46.1
	C184.3,149.9,168.3,177.1,168.3,207.9z M294.2,338l9.8,4.5c-14.3,11.9-30.7,18.1-47.8,18.2c-0.1,0-0.2,0-0.2,0
	c-17.2,0-33.6-6.3-48-18.2l9.8-4.5c8.3-3.8,13.7-12.2,13.7-21.4v-9.4c7.7,2.8,15.9,4.3,24.6,4.3s16.9-1.5,24.6-4.3v9.4
	C280.6,325.8,285.9,334.2,294.2,338z M328.7,207.9c0,5.3-0.6,10.5-1.7,15.6c-2-8.5-8.7-15.3-17.6-17.4
	c-17.8-4.2-50.8-14.3-72.1-35.6c-2.9-2.9-7.7-2.9-10.6,0c-2.9,2.9-2.9,7.7,0,10.6c23.9,23.9,60,35.1,79.3,39.6
	c3.9,0.9,6.7,4.3,6.7,8.3v11c0,31.2-25.4,56.6-56.6,56.6s-56.6-25.4-56.6-56.6v-17.4c0-2.3,0.9-4.4,2.5-6l11.3-11.3
	c2.9-2.9,2.9-7.7,0-10.6c-2.9-2.9-7.7-2.9-10.6,0L191.4,206c-4,4-6.4,9.1-6.8,14.7c-0.7-4.2-1.1-8.4-1.1-12.7
	c0-40.1,32.6-72.7,72.7-72.7C296.1,135.2,328.7,167.8,328.7,207.9z M256,103.2c14.5,0,26.9,9.6,31.1,22.8
	c-9.7-3.7-20.1-5.7-31.1-5.7s-21.4,2-31.1,5.7C229.1,112.8,241.5,103.2,256,103.2z"/>
<path class="st0" d="M256,63.1c17.4,0,31.5-14.2,31.5-31.5C287.5,14.2,273.4,0,256,0s-31.5,14.2-31.5,31.5
	C224.5,48.9,238.6,63.1,256,63.1z M256,15c9.1,0,16.5,7.4,16.5,16.5s-7.4,16.6-16.5,16.6s-16.5-7.4-16.5-16.5S246.9,15,256,15z"/>
<path class="st0" d="M256,448.9c-17.4,0-31.5,14.2-31.5,31.5c0,17.4,14.2,31.6,31.5,31.6s31.5-14.2,31.5-31.5
	C287.5,463.1,273.4,448.9,256,448.9z M256,497c-9.1,0-16.5-7.4-16.5-16.5s7.4-16.6,16.5-16.6s16.5,7.4,16.5,16.6S265.1,497,256,497z
	"/>
<path class="st0" d="M480.5,224.5c-17.4,0-31.6,14.2-31.6,31.5s14.2,31.5,31.6,31.5S512,273.3,512,256S497.8,224.5,480.5,224.5z
	 M480.5,272.5c-9.1,0-16.6-7.4-16.6-16.5s7.4-16.5,16.6-16.5S497,246.9,497,256S489.6,272.5,480.5,272.5z"/>
<path class="st0" d="M63.1,256c0-17.4-14.2-31.5-31.5-31.5C14.2,224.5,0,238.6,0,256s14.2,31.5,31.5,31.5
	C48.9,287.5,63.1,273.4,63.1,256z M15,256c0-9.1,7.4-16.5,16.5-16.5s16.6,7.4,16.6,16.5s-7.4,16.5-16.5,16.5S15,265.1,15,256z"/>
<path class="st0" d="M414.7,128.8c8.4,0,16.3-3.3,22.3-9.2c6-6,9.2-13.9,9.2-22.3S442.9,80.9,437,75c-6-6-13.9-9.2-22.3-9.2
	S398.4,69,392.4,75s-9.2,13.9-9.2,22.3s3.3,16.3,9.2,22.3C398.4,125.6,406.3,128.8,414.7,128.8z M403,85.6c3.1-3.1,7.3-4.8,11.7-4.8
	s8.6,1.7,11.7,4.8c3.1,3.1,4.8,7.3,4.8,11.7c0,4.4-1.7,8.6-4.8,11.7c-3.1,3.1-7.3,4.8-11.7,4.8c-4.4,0-8.6-1.7-11.7-4.8
	c-3.1-3.1-4.8-7.3-4.8-11.7S399.9,88.7,403,85.6z"/>
<path class="st0" d="M97.3,383.2c-8.4,0-16.3,3.3-22.3,9.2c-6,6-9.2,13.9-9.2,22.3s3.3,16.4,9.2,22.3c6,6,13.9,9.2,22.3,9.2
	s16.4-3.3,22.3-9.2c6-6,9.2-13.9,9.2-22.3s-3.3-16.3-9.2-22.3C113.6,386.4,105.7,383.2,97.3,383.2z M109,426.4
	c-3.1,3.1-7.3,4.8-11.7,4.8s-8.6-1.7-11.7-4.8c-3.1-3.1-4.8-7.3-4.8-11.7c0-4.4,1.7-8.6,4.8-11.7c3.1-3.1,7.3-4.8,11.7-4.8
	c4.4,0,8.6,1.7,11.7,4.8c3.1,3.1,4.8,7.3,4.8,11.7S112.1,423.3,109,426.4z"/>
<path class="st0" d="M414.7,383.2c-8.4,0-16.4,3.3-22.3,9.2c-6,6-9.2,13.9-9.2,22.3s3.3,16.4,9.2,22.3c6,6,13.9,9.2,22.3,9.2
	s16.3-3.3,22.3-9.2c6-6,9.2-13.9,9.2-22.3s-3.3-16.3-9.2-22.3C431.1,386.4,423.1,383.2,414.7,383.2z M426.4,426.4
	c-3.1,3.1-7.3,4.8-11.7,4.8c-4.4,0-8.6-1.7-11.7-4.8c-3.1-3.1-4.8-7.3-4.8-11.7c0-4.4,1.7-8.6,4.8-11.7c3.1-3.1,7.3-4.8,11.7-4.8
	s8.6,1.7,11.7,4.8s4.8,7.3,4.8,11.7C431.3,419.1,429.5,423.3,426.4,426.4z"/>
<path class="st0" d="M97.3,65.7C88.9,65.7,80.9,69,75,75c-6,6-9.2,13.9-9.2,22.3s3.3,16.4,9.2,22.3s13.9,9.2,22.3,9.2
	s16.4-3.3,22.3-9.2s9.2-13.9,9.2-22.3S125.5,81,119.6,75C113.6,69,105.7,65.7,97.3,65.7z M109,109c-3.1,3.1-7.3,4.8-11.7,4.8
	s-8.6-1.7-11.7-4.8s-4.8-7.3-4.8-11.7s1.7-8.6,4.8-11.7c3.1-3.1,7.3-4.8,11.7-4.8c4.4,0,8.6,1.7,11.7,4.8c3.1,3.1,4.8,7.3,4.8,11.7
	S112.1,105.9,109,109z"/>
<path class="st0" d="M69.1,366.2c-10.4-17.6-18.2-36.4-23.2-55.9c-1-4-5.1-6.4-9.1-5.4s-6.4,5.1-5.4,9.1c5.4,20.9,13.7,41,24.8,59.8
	c1.4,2.4,3.9,3.7,6.5,3.7c1.3,0,2.6-0.3,3.8-1C70,374.3,71.2,369.7,69.1,366.2z"/>
<path class="st0" d="M36.8,207.1c0.6,0.2,1.3,0.2,1.9,0.2c3.3,0,6.4-2.2,7.3-5.6c5-19.5,12.8-38.3,23.2-55.9
	c2.1-3.6,0.9-8.2-2.6-10.3c-3.6-2.1-8.2-0.9-10.3,2.6c-11.2,18.9-19.6,39-24.9,59.9C30.3,202,32.7,206.1,36.8,207.1z"/>
<path class="st0" d="M373.8,56.2C355,45.1,334.9,36.7,314,31.4c-4-1-8.1,1.4-9.1,5.4s1.4,8.1,5.4,9.1c19.5,5,38.3,12.8,55.9,23.2
	c1.2,0.7,2.5,1,3.8,1c2.6,0,5.1-1.3,6.5-3.7C378.5,62.9,377.4,58.3,373.8,56.2z"/>
<path class="st0" d="M201.8,466.1c-19.5-5-38.3-12.8-55.9-23.2c-3.6-2.1-8.2-0.9-10.3,2.6c-2.1,3.6-0.9,8.2,2.6,10.3
	c18.8,11.1,38.9,19.5,59.8,24.8c0.6,0.2,1.3,0.2,1.9,0.2c3.3,0,6.4-2.2,7.3-5.6C208.2,471.2,205.8,467.1,201.8,466.1z"/>
<path class="st0" d="M366.2,442.9c-17.6,10.4-36.4,18.2-55.9,23.2c-4,1-6.4,5.1-5.4,9.1c0.9,3.4,3.9,5.6,7.3,5.6
	c0.6,0,1.2-0.1,1.9-0.2c20.9-5.4,41-13.7,59.8-24.8c3.6-2.1,4.8-6.7,2.6-10.3S369.7,440.8,366.2,442.9z"/>
<path class="st0" d="M442.9,145.8c10.4,17.6,18.2,36.4,23.2,55.9c0.9,3.4,3.9,5.6,7.3,5.6c0.6,0,1.2-0.1,1.9-0.2
	c4-1,6.4-5.1,5.4-9.1c-5.4-20.9-13.7-41-24.8-59.8c-2.1-3.6-6.7-4.8-10.3-2.6C442,137.7,440.8,142.3,442.9,145.8z"/>
<path class="st0" d="M475.2,304.9c-4-1-8.1,1.4-9.1,5.4c-5,19.5-12.8,38.3-23.2,55.9c-2.1,3.6-0.9,8.2,2.6,10.3c1.2,0.7,2.5,1,3.8,1
	c2.6,0,5.1-1.3,6.5-3.7c11.1-18.8,19.5-38.9,24.8-59.8C481.7,310,479.3,305.9,475.2,304.9z"/>
<path class="st0" d="M142,70.2c1.3,0,2.6-0.3,3.8-1C163.4,58.8,182.2,51,201.7,46c4-1,6.4-5.1,5.4-9.1s-5.1-6.4-9.1-5.4
	c-20.9,5.4-41,13.7-59.8,24.8c-3.6,2.1-4.8,6.7-2.6,10.3C137,68.8,139.5,70.2,142,70.2z"/>
</svg>
