<?xml version="1.0" encoding="utf-8"?>
<!-- Generator: Adobe Illustrator 25.0.1, SVG Export Plug-In . SVG Version: 6.00 Build 0)  -->
<svg version="1.1" id="Layer_1" xmlns="http://www.w3.org/2000/svg" xmlns:xlink="http://www.w3.org/1999/xlink" x="0px" y="0px"
	 viewBox="0 0 512 512" style="enable-background:new 0 0 512 512;" xml:space="preserve">
<style type="text/css">
	.st0{fill:#0773BB;}
</style>
<path class="st0" d="M269.6,247.3h-77.5c-4.2,0-7.6,3.4-7.6,7.6c0,4.2,3.4,7.6,7.6,7.6h77.5c4.2,0,7.6-3.4,7.6-7.6
	C277.2,250.7,273.8,247.3,269.6,247.3z"/>
<path class="st0" d="M151.5,297.3h116.7c4.2,0,7.6-3.4,7.6-7.6s-3.4-7.6-7.6-7.6H151.5c-4.2,0-7.6,3.4-7.6,7.6
	S147.3,297.3,151.5,297.3z"/>
<path class="st0" d="M277.2,326c0-4.2-3.4-7.6-7.6-7.6H151.5c-4.2,0-7.6,3.4-7.6,7.6s3.4,7.6,7.6,7.6h118.2
	C273.8,333.6,277.2,330.2,277.2,326z"/>
<path class="st0" d="M151.5,353.2c-4.2,0-7.6,3.4-7.6,7.6s3.4,7.6,7.6,7.6h92.9c4.2,0,7.6-3.4,7.6-7.6s-3.4-7.6-7.6-7.6H151.5z"/>
<path class="st0" d="M403.4,378.8l-52.1,52.1L335.6,416c-3-2.9-7.8-2.7-10.7,0.3s-2.7,7.8,0.3,10.7l21,19.9c1.5,1.4,3.3,2.1,5.2,2.1
	c1.9,0,3.9-0.7,5.4-2.2l57.3-57.3c3-3,3-7.8,0-10.7C411.2,375.8,406.4,375.8,403.4,378.8z"/>
<path class="st0" d="M117.9,94.8c-9.6,0-17.4,7.8-17.4,17.4v29.9l0,0v29.6c0,9.6,7.8,17.4,17.4,17.4h179.5c9.6,0,17.4-7.8,17.4-17.4
	v-59.6c0-9.6-7.8-17.4-17.4-17.4L117.9,94.8L117.9,94.8z M299.7,171.8c0,1.2-1,2.2-2.2,2.2H117.9c-1.2,0-2.2-1-2.2-2.2v-24.7
	c21.4-7.8,41.9-3.4,65.4,1.6c17,3.6,35.4,7.6,56.5,7.6c14.6,0,30.4-1.9,48-7c5.3-1.6,10.1-3.8,14-6.2v28.7H299.7z M299.7,112.2v12.3
	c-3.1,2.7-9.7,7.8-18.2,10.3c-39.4,11.5-68.7,5.2-97.1-0.8c-23.1-4.9-45.1-9.6-68.6-2.7v-19c0-1.2,1-2.2,2.2-2.2h179.5
	C298.6,110,299.7,111,299.7,112.2z"/>
<path class="st0" d="M370.3,316.6v-94.1c0-4.2-3.4-7.6-7.6-7.6s-7.6,3.4-7.6,7.6v94.9c-14.1,1.8-27.3,6.6-38.9,13.7V227.5
	c0-9.4-7.6-17-17-17h-72.7c-4.2,0-7.6,3.4-7.6,7.6s3.4,7.6,7.6,7.6h72.7c1,0,1.9,0.9,1.9,1.9v114.9c0,0.1,0,0.1-0.1,0.2
	c-14.6,13.5-25.1,31.5-29.3,51.7H119c-1,0-1.9-0.9-1.9-1.9v-165c0-1,0.9-1.9,1.9-1.9h72.3c4.2,0,7.6-3.4,7.6-7.6s-3.4-7.6-7.6-7.6
	H119c-9.4,0-17,7.6-17,17v164.9c0,9.4,7.6,17,17,17h150.7c-0.1,1.6-0.1,3.2-0.1,4.9c0,6.4,0.6,12.7,1.8,18.8H63.1V69.9h292.1v115.5
	c0,4.2,3.4,7.6,7.6,7.6s7.6-3.4,7.6-7.6V46.7C370.3,21,349.4,0,323.7,0h-229C68.9,0,48,21,48,46.7V450c0,25.8,20.9,46.7,46.7,46.7
	H315c15.1,9.7,33.1,15.3,52.4,15.3c53.8,0,97.6-43.8,97.6-97.7C465,361.4,422.8,318.1,370.3,316.6z M63.1,46.7
	c0-17.4,14.1-31.6,31.5-31.6h229c17.4,0,31.5,14.2,31.5,31.6v8.1h-292V46.7z M94.7,481.6c-17.4,0-31.5-14.2-31.5-31.6v-1.8h212.7
	c4.6,12.5,11.8,23.8,20.8,33.3h-202V481.6z M367.4,496.9c-45.5,0-82.5-37-82.5-82.6s37-82.6,82.5-82.6s82.5,37.1,82.5,82.6
	S412.9,496.9,367.4,496.9z"/>
<path class="st0" d="M106.6,26.3h-0.2c-4.2,0-7.6,3.4-7.6,7.6s3.4,7.6,7.6,7.6h0.2c4.2,0,7.6-3.4,7.6-7.6S110.8,26.3,106.6,26.3z"/>
<path class="st0" d="M132.2,26.3H132c-4.2,0-7.6,3.4-7.6,7.6s3.4,7.6,7.6,7.6h0.2c4.2,0,7.6-3.4,7.6-7.6S136.4,26.3,132.2,26.3z"/>
</svg>
