<?xml version="1.0" encoding="utf-8"?>
<!-- Generator: Adobe Illustrator 24.0.0, SVG Export Plug-In . SVG Version: 6.00 Build 0)  -->
<svg version="1.1" id="Layer_1" xmlns="http://www.w3.org/2000/svg" xmlns:xlink="http://www.w3.org/1999/xlink" x="0px" y="0px"
	 viewBox="0 0 500 500" style="enable-background:new 0 0 500 500;" xml:space="preserve">
<style type="text/css">
	.st0{fill:url(#SVGID_1_);}
	.st1{fill:url(#SVGID_2_);}
	.st2{fill:url(#SVGID_3_);}
	.st3{fill:url(#SVGID_4_);}
</style>
<g>
	<linearGradient id="SVGID_1_" gradientUnits="userSpaceOnUse" x1="28.8319" y1="41.9343" x2="450.8319" y2="438.9343">
		<stop  offset="0" style="stop-color:#0773bb"/>
		<stop  offset="1" style="stop-color:#0773bb"/>
	</linearGradient>
	<path class="st0" d="M250,0C161.1,0,89,111.9,89,250s72.1,250,161,250s161-111.9,161-250S338.9,0,250,0z M349.8,412.2
		c-13.2,20.6-28.7,36.7-45.7,47.9c-17.2,11.3-35.4,17-54.1,17s-36.9-5.8-54.1-17c-17-11.2-32.4-27.4-45.7-47.9
		c-13.4-20.9-24-45.3-31.5-72.6c-7.8-28.4-11.6-58.5-11.6-89.6s3.9-61.2,11.6-89.6c7.4-27.3,18-51.7,31.5-72.6
		c13.2-20.6,28.7-36.7,45.7-47.9c17.2-11.3,35.4-17,54.1-17s36.9,5.8,54.1,17c17,11.2,32.4,27.4,45.7,47.9
		c13.4,20.9,24,45.3,31.5,72.6c7.8,28.4,11.6,58.5,11.6,89.6c0,31.1-3.9,61.2-11.6,89.6C374,366.9,363.4,391.3,349.8,412.2z"/>
	<linearGradient id="SVGID_2_" gradientUnits="userSpaceOnUse" x1="28.8319" y1="41.9343" x2="450.8319" y2="438.9343">
		<stop  offset="0" style="stop-color:#0773bb"/>
		<stop  offset="1" style="stop-color:#0773bb"/>
	</linearGradient>
	<path class="st1" d="M460.1,114.5c-48.2-74.7-181.3-74.6-297.4,0.2S-8.3,310.8,39.9,385.5s181.3,74.6,297.4-0.2
		S508.3,189.2,460.1,114.5z M167.8,421.8c-24.5,0.1-46.4-4.2-65-12.5C84,401,69.3,388.9,59.1,373.1C49,357.4,44,339,44.1,318.4
		c0.1-20.4,5.4-42,15.5-64.4c10.3-22.6,25.1-44.8,43.9-65.8c19.7-21.9,42.8-41.5,69-58.4S226,99.9,254.1,91
		c26.9-8.6,53.2-12.9,78.1-12.9c24.5-0.1,46.4,4.2,65,12.5c18.8,8.4,33.5,20.5,43.7,36.3s15.2,34.1,15,54.7
		c-0.1,20.4-5.4,42-15.5,64.4c-10.3,22.6-25.1,44.8-43.9,65.8c-19.7,21.9-42.8,41.5-69,58.4C301.4,387,274,400.1,245.9,409
		C219,417.5,192.7,421.9,167.8,421.8z"/>
	<linearGradient id="SVGID_3_" gradientUnits="userSpaceOnUse" x1="28.8319" y1="41.9343" x2="450.8319" y2="438.9343">
		<stop  offset="0" style="stop-color:#0773bb"/>
		<stop  offset="1" style="stop-color:#0773bb"/>
	</linearGradient>
	<path class="st2" d="M461.9,382.6c47.2-75.4-9.5-195.8-126.5-269.1S85.2,42,38.1,117.4s9.5,195.8,126.5,269.1
		S414.8,458,461.9,382.6z M59.5,248.6c-10.5-22.2-15.9-43.8-16.4-64.2c-0.4-20.6,4.3-39,14.3-54.9s24.5-28.2,43.2-36.9
		c18.5-8.5,40.4-12.9,64.8-13.4c24.9-0.3,51.2,3.7,78.3,11.8c28.2,8.5,55.8,21.2,82.2,37.7c26.4,16.5,49.9,35.8,69.8,57.4
		c19.2,20.7,34.3,42.7,44.8,65.2c10.5,22.2,15.9,43.8,16.4,64.2c0.4,20.6-4.3,39-14.3,54.9s-24.5,28.2-43.2,36.9
		c-18.5,8.5-40.4,12.9-64.8,13.4c-24.9,0.3-51.2-3.7-78.3-11.8c-28.2-8.5-55.8-21.2-82.2-37.7c-26.4-16.5-49.9-35.8-69.8-57.4
		C85.2,293.1,70.1,271.2,59.5,248.6z"/>
	<linearGradient id="SVGID_4_" gradientUnits="userSpaceOnUse" x1="40.4455" y1="29.5894" x2="462.4455" y2="426.5894">
		<stop  offset="0" style="stop-color:#0773bb"/>
		<stop  offset="1" style="stop-color:#0773bb"/>
	</linearGradient>
	<path class="st3" d="M322.8,188.1c-9-9.7-21.3-15.1-34.6-15.1c-10,0-19.1,3.2-27.2,9.4c-4.1,3.1-7.7,7-11,11.5
		c-3.2-4.5-6.9-8.3-11-11.5c-8.1-6.2-17.2-9.4-27.2-9.4c-13.4,0-25.7,5.4-34.6,15.1c-8.9,9.6-13.7,22.7-13.7,36.9
		c0,14.6,5.5,28,17.2,42.2c10.5,12.6,25.5,25.5,43,40.3c6,5.1,12.7,10.8,19.7,17c1.9,1.6,4.2,2.5,6.7,2.5s4.8-0.9,6.7-2.5
		c7-6.1,13.8-11.9,19.7-17c17.4-14.9,32.5-27.7,43-40.3c11.7-14.1,17.2-27.5,17.2-42.2C336.5,210.8,331.7,197.7,322.8,188.1z"/>
</g>
</svg>
