<?xml version="1.0" encoding="utf-8"?>
<!-- Generator: Adobe Illustrator 24.0.0, SVG Export Plug-In . SVG Version: 6.00 Build 0)  -->
<svg version="1.1" id="Layer_1" xmlns="http://www.w3.org/2000/svg" xmlns:xlink="http://www.w3.org/1999/xlink" x="0px" y="0px"
	 viewBox="0 0 512 512" style="enable-background:new 0 0 512 512;" xml:space="preserve">
<style type="text/css">
	.st0{fill:url(#SVGID_1_);}
</style>
<g>
	<g>
		<linearGradient id="SVGID_1_" gradientUnits="userSpaceOnUse" x1="58.094" y1="101.823" x2="459.0877" y2="479.7003">
			<stop  offset="0" style="stop-color:#0773bb"/>
			<stop  offset="1" style="stop-color:#0773bb"/>
		</linearGradient>
		<path class="st0" d="M507.2,342.3C507.2,342.3,507.2,342.3,507.2,342.3l-58.8-201.6c-5.3-18.3-16.7-34.8-31.9-46.4
			c-1.5-1.1-3-2.2-4.5-3.2l-6.5-28.6C399.2,35.2,375.2,16,347,16c-33.1,0-60,26.9-60,60v40.3c-4.9,7.4-8.8,15.5-11.3,24.2
			c-5.9-2.9-12.6-4.5-19.7-4.5c-6.7,0-13.1,1.5-18.8,4.1c-2.5-8.3-6.3-16.2-11.2-23.5V76c0-33.4-28-60-61-60
			c-28.2,0-52.2,19.2-58.5,46.6L100,91.2c-1.5,1-3,2.1-4.5,3.2c-15.3,11.6-26.6,28.1-31.9,46.4L4.8,342.3c0,0,0,0,0,0
			C1.6,353.2,0,364.6,0,376c0,66.2,53.8,120,120,120c66.7,0,121-53.8,121-120v-2.6c4.7,1.7,9.7,2.6,15,2.6c5.6,0,11-1,16-3v3
			c0,66.2,53.8,120,120,120s120-53.8,120-120C512,364.6,510.4,353.2,507.2,342.3z M135.8,69.3C138.8,55.8,151.1,46,165,46
			c16.8,0,31,13.7,31,30v12.4C182.2,80.3,166.4,76,150,76c-5.5,0-10.8,0.5-16.1,1.4L135.8,69.3z M120,466c-49.6,0-90-40.4-90-90
			c0-12,2.3-23.7,6.9-34.6c14-33.7,46.7-55.4,83.1-55.4c50.2,0,91,40.4,91,90S170.2,466,120,466z M211,297
			c-21.4-24.3-52.5-39.9-87.3-40.9L150,166c2.3-8-2.2-16.3-10.2-18.6c-7.9-2.3-16.3,2.2-18.6,10.2L91.5,259.4
			c-12.7,3.1-24.8,8.2-35.7,15.1l36.6-125.4c7.4-25.4,31.1-43.2,57.6-43.2c33.6,0,61,26.9,61,60V297z M256,346c-8.3,0-15-6.7-15-15
			s6.7-15,15-15s15,6.7,15,15S264.3,346,256,346z M271,289c-5-1.9-9.4-3-15-3c-5.3,0-10.3,0.9-15,2.6V181c0-8.3,6.7-15,15-15
			c6.9,0,12.7,4.7,14.5,11c0.1,0.3,0.5,4,0.5,4L271,289L271,289z M317,76c0-16.5,13.5-30,30-30c13.9,0,26.2,9.8,29.3,23.3l1.9,8.2
			c-5.3-0.9-10.6-1.4-16.1-1.4c-16.4,0-31.8,4.4-45,12.1V76z M302,166L302,166c0-33.1,26.9-60,60-60c26.5,0,50.2,17.7,57.6,43.2
			l36.6,125.4c-10.9-6.9-22.9-12-35.7-15.1l-29.7-101.9c-2.3-8-10.6-12.5-18.6-10.2c-8,2.3-12.5,10.6-10.2,18.6l26.3,90.1
			c-34.3,1-65.1,16.6-86.3,40.7L302,166L302,166z M392,466c-49.6,0-90-40.4-90-90s40.4-90,90-90c36.5,0,69.1,21.7,83.1,55.4
			c1.3,3,2.4,6.2,3.3,9.3c2.4,8.2,3.6,16.7,3.6,25.3C482,425.6,441.6,466,392,466z"/>
	</g>
</g>
</svg>
