<?xml version="1.0" encoding="utf-8"?>
<!-- Generator: Adobe Illustrator 24.0.0, SVG Export Plug-In . SVG Version: 6.00 Build 0)  -->
<svg version="1.1" id="light" xmlns="http://www.w3.org/2000/svg" xmlns:xlink="http://www.w3.org/1999/xlink" x="0px" y="0px"
	 viewBox="0 0 512 512" style="enable-background:new 0 0 512 512;" xml:space="preserve">
<style type="text/css">
	.st0{fill:url(#SVGID_1_);}
	.st1{fill:url(#SVGID_2_);}
	.st2{fill:url(#SVGID_3_);}
	.st3{fill:url(#SVGID_4_);}
	.st4{fill:url(#SVGID_5_);}
	.st5{fill:url(#SVGID_6_);}
	.st6{fill:url(#SVGID_7_);}
	.st7{fill:url(#SVGID_8_);}
	.st8{fill:url(#SVGID_9_);}
	.st9{fill:url(#SVGID_10_);}
</style>
<g>
	<g>
		<linearGradient id="SVGID_1_" gradientUnits="userSpaceOnUse" x1="125.1051" y1="178.5063" x2="384.9199" y2="423.3434">
			<stop  offset="0" style="stop-color:#0773bb"/>
			<stop  offset="1" style="stop-color:#0773bb"/>
		</linearGradient>
		<path class="st0" d="M288,512h-64c-14.9,0-32-12.8-32-38.4v-44.8c0-21.3-10.7-40.5-27.7-55.5c-38.4-29.9-57.6-72.5-57.6-119.5
			c2.1-81.1,68.3-145.1,147.2-147.2c40.5,0,78.9,14.9,106.7,42.7c27.7,27.7,44.8,66.1,44.8,106.7c0,44.8-19.2,87.5-55.5,115.2
			c-19.2,14.9-29.9,38.4-29.9,59.7V480C320,497.1,305.1,512,288,512L288,512z M256,128c-68.3,0-125.9,57.6-128,125.9
			c0,40.5,17.1,78.9,49.1,102.4c23.5,19.2,36.3,44.8,36.3,72.5v44.8c0,4.3,0,17.1,10.7,17.1h64c6.4,0,10.7-4.3,10.7-10.7v-49.1
			c0-27.7,14.9-57.6,38.4-76.8c29.9-23.5,46.9-59.7,46.9-98.1c0-34.1-12.8-66.1-38.4-91.7C322.1,140.8,290.1,128,256,128L256,128z"
			/>
	</g>
	<g>
		<linearGradient id="SVGID_2_" gradientUnits="userSpaceOnUse" x1="219.793" y1="403.2136" x2="292.207" y2="471.4531">
			<stop  offset="0" style="stop-color:#0773bb"/>
			<stop  offset="1" style="stop-color:#0773bb"/>
		</linearGradient>
		<path class="st1" d="M309.3,448H202.7c-6.4,0-10.7-4.3-10.7-10.7s4.3-10.7,10.7-10.7h106.7c6.4,0,10.7,4.3,10.7,10.7
			S315.7,448,309.3,448z"/>
	</g>
	<g>
		<linearGradient id="SVGID_3_" gradientUnits="userSpaceOnUse" x1="237.3933" y1="14.4659" x2="274.6067" y2="49.5341">
			<stop  offset="0" style="stop-color:#0773bb"/>
			<stop  offset="1" style="stop-color:#0773bb"/>
		</linearGradient>
		<path class="st2" d="M256,64c-6.4,0-10.7-4.3-10.7-10.7V10.7C245.3,4.3,249.6,0,256,0c6.4,0,10.7,4.3,10.7,10.7v42.7
			C266.7,59.7,262.4,64,256,64z"/>
	</g>
	<g>
		<linearGradient id="SVGID_4_" gradientUnits="userSpaceOnUse" x1="404.6599" y1="91.5268" x2="420.9425" y2="106.8708">
			<stop  offset="0" style="stop-color:#0773bb"/>
			<stop  offset="1" style="stop-color:#0773bb"/>
		</linearGradient>
		<path class="st3" d="M398.9,123.7c-2.1,0-6.4,0-8.5-2.1c-4.3-4.3-4.3-10.7,0-14.9l29.9-29.9c4.3-4.3,10.7-4.3,14.9,0
			s4.3,10.7,0,14.9l-29.9,29.9C405.3,121.6,401.1,123.7,398.9,123.7L398.9,123.7z"/>
	</g>
	<g>
		<linearGradient id="SVGID_5_" gradientUnits="userSpaceOnUse" x1="460.7419" y1="237.8521" x2="499.2581" y2="274.1479">
			<stop  offset="0" style="stop-color:#0773bb"/>
			<stop  offset="1" style="stop-color:#0773bb"/>
		</linearGradient>
		<path class="st4" d="M501.3,266.7h-42.7c-6.4,0-10.7-4.3-10.7-10.7c0-6.4,4.3-10.7,10.7-10.7h42.7c6.4,0,10.7,4.3,10.7,10.7
			C512,262.4,507.7,266.7,501.3,266.7z"/>
	</g>
	<g>
		<linearGradient id="SVGID_6_" gradientUnits="userSpaceOnUse" x1="389.7528" y1="393.2125" x2="436.2498" y2="437.0291">
			<stop  offset="0" style="stop-color:#0773bb"/>
			<stop  offset="1" style="stop-color:#0773bb"/>
		</linearGradient>
		<path class="st5" d="M428.8,439.5c-2.1,0-6.4,0-8.5-2.1l-29.9-29.9c-4.3-4.3-4.3-10.7,0-14.9c4.3-4.3,10.7-4.3,14.9,0l29.9,29.9
			c4.3,4.3,4.3,10.7,0,14.9C435.2,439.5,433.1,439.5,428.8,439.5L428.8,439.5z"/>
	</g>
	<g>
		<linearGradient id="SVGID_7_" gradientUnits="userSpaceOnUse" x1="88.9265" y1="407.2602" x2="105.2091" y2="422.6041">
			<stop  offset="0" style="stop-color:#0773bb"/>
			<stop  offset="1" style="stop-color:#0773bb"/>
		</linearGradient>
		<path class="st6" d="M83.2,439.5c-2.1,0-6.4,0-8.5-2.1c-4.3-4.3-4.3-10.7,0-14.9l29.9-29.9c4.3-4.3,10.7-4.3,14.9,0
			c4.3,4.3,4.3,10.7,0,14.9l-29.9,29.9C87.5,439.5,85.3,439.5,83.2,439.5z"/>
	</g>
	<g>
		<linearGradient id="SVGID_8_" gradientUnits="userSpaceOnUse" x1="12.7419" y1="237.8521" x2="51.2581" y2="274.1479">
			<stop  offset="0" style="stop-color:#0773bb"/>
			<stop  offset="1" style="stop-color:#0773bb"/>
		</linearGradient>
		<path class="st7" d="M53.3,266.7H10.7C4.3,266.7,0,262.4,0,256c0-6.4,4.3-10.7,10.7-10.7h42.7c6.4,0,10.7,4.3,10.7,10.7
			C64,262.4,59.7,266.7,53.3,266.7z"/>
	</g>
	<g>
		<linearGradient id="SVGID_9_" gradientUnits="userSpaceOnUse" x1="73.487" y1="75.9108" x2="119.5838" y2="119.3501">
			<stop  offset="0" style="stop-color:#0773bb"/>
			<stop  offset="1" style="stop-color:#0773bb"/>
		</linearGradient>
		<path class="st8" d="M113.1,123.7c-2.1,0-6.4,0-8.5-2.1l-29.9-32c-4.3-4.3-4.3-10.7,0-14.9c4.3-4.3,10.7-4.3,14.9,0l29.9,29.9
			c4.3,4.3,4.3,10.7,0,14.9C117.3,121.6,115.2,123.7,113.1,123.7L113.1,123.7z"/>
	</g>
	<g>
		<linearGradient id="SVGID_10_" gradientUnits="userSpaceOnUse" x1="254.7441" y1="156.0538" x2="358.4503" y2="253.7816">
			<stop  offset="0" style="stop-color:#0773bb"/>
			<stop  offset="1" style="stop-color:#0773bb"/>
		</linearGradient>
		<path class="st9" d="M341.3,266.7c-6.4,0-10.7-4.3-10.7-10.7c0-40.5-34.1-74.7-74.7-74.7c-6.4,0-10.7-4.3-10.7-10.7
			S249.6,160,256,160c53.3,0,96,42.7,96,96C352,262.4,347.7,266.7,341.3,266.7z"/>
	</g>
</g>
</svg>
